<?xml version="1.0" encoding="utf-8"?>
<!-- Generator: Adobe Illustrator 24.1.2, SVG Export Plug-In . SVG Version: 6.00 Build 0)  -->
<svg version="1.1" id="Layer_1" xmlns="http://www.w3.org/2000/svg" xmlns:xlink="http://www.w3.org/1999/xlink" x="0px" y="0px"
	 viewBox="0 0 100 60" style="enable-background:new 0 0 100 60;" xml:space="preserve">
<style type="text/css">
	.st0{fill:#F2D349;}
	.st1{fill:none;}
	.st2{fill:#5C6E58;}
	.st3{font-family:'MyriadPro-Regular';}
	.st4{font-size:30px;}
</style>
<path class="st0" d="M96.67,0.96c0.59,0,1.14,0.06,1.67,0.15c0.04-0.01,0.07-0.02,0.12-0.02c0.13,0,0.22,0.04,0.3,0.1
	C99.2,1.27,99.61,1.4,100,1.55V0H58.31c5.34,2.3,4.5,11.89-2.52,11.89c-7.03,0-7.85-9.59-2.51-11.89h-20.9
	c0.05,1.97-1.18,3.99-3.72,3.99c-2.54,0-3.78-2.02-3.72-3.99H7.64C7.27,2.12,5.69,4,2.91,4C1.72,4,0.75,3.65,0,3.1v19.93
	c0.97-0.38,2.06-0.61,3.3-0.61c11.2,0,11.18,17.37,0,17.37c-1.24,0-2.34-0.22-3.3-0.6V60h3.62c-5.35-2.79-4.3-12.72,3.13-12.72
	c7.45,0,8.48,9.93,3.13,12.72H59.4c-1.18-4.54,1.27-10.18,7.34-10.18c6.08,0,8.52,5.64,7.34,10.18h18.41
	c-1.72-4.55,0.58-10.8,6.91-10.8c0.21,0,0.41,0.02,0.61,0.03V18.2c-0.98,0.38-2.08,0.6-3.33,0.6C85.17,18.8,85.19,0.96,96.67,0.96z
	 M13.79,23.42c-9.51,0-9.49-14.75,0-14.75C23.29,8.67,23.28,23.42,13.79,23.42z M21.49,11.91c-0.65,0-0.65-1.01,0-1.01
	C22.14,10.9,22.14,11.91,21.49,11.91z M28.32,29c7,0,6.99,10.86,0,10.86C21.32,39.86,21.33,29,28.32,29z M33.63,56.38
	c-7.59,0-7.58-11.78,0-11.78C41.22,44.6,41.21,56.38,33.63,56.38z M41.46,30.69c-1.51,0-1.51-2.34,0-2.34
	C42.97,28.35,42.96,30.69,41.46,30.69z M39.6,13.76c-0.48,1.53-1.76,2.78-3.84,2.78c-5.43,0-5.42-8.42,0-8.42
	c1.51,0,2.58,0.66,3.25,1.59c0.47-1.73,1.86-3.18,4.19-3.18c5.85,0,5.84,9.07,0,9.07C41.49,15.61,40.31,14.84,39.6,13.76z
	 M48.16,47.93c-2.86,0-2.85-4.43,0-4.43C51.02,43.5,51.01,47.93,48.16,47.93z M54.47,52.46c-5.36,0-5.35-8.32,0-8.32
	C59.83,44.14,59.82,52.46,54.47,52.46z M63.06,33.77c-0.27,0.37-0.7,0.63-1.3,0.63c-1.23,0-1.77-1.08-1.61-2.02
	c-0.39-0.57-0.61-1.24-0.65-1.94c-0.87,0.45-1.91,0.71-3.12,0.71c-8.78,0-8.76-13.61,0-13.61c5.38,0,7.45,5.12,6.23,9.08
	c0.11-0.01,0.22-0.03,0.34-0.03C67.56,26.59,67.58,33.66,63.06,33.77z M67.07,7.47c6.45,0,6.43,10,0,10
	C60.63,17.47,60.64,7.47,67.07,7.47z M81.8,53.15c-3.01,0-4.92-1.69-5.75-3.85c-0.35,0.05-0.71,0.08-1.09,0.08
	c-9.18,0-9.16-14.24,0-14.24c3.72,0,5.93,2.34,6.63,5.13c0.07,0,0.13-0.01,0.2-0.01C90.11,40.26,90.1,53.15,81.8,53.15z
	 M86.32,33.63c-4.78,0-6.55-4.66-5.33-8.13c-0.21,0.02-0.42,0.03-0.65,0.03c-7.27,0-7.26-11.28,0-11.28c4.5,0,6.21,4.33,5.13,7.62
	c0.27-0.03,0.55-0.06,0.84-0.06C93.93,21.82,93.92,33.63,86.32,33.63z"/>
<rect x="19.31" y="15.51" class="st1" width="82.95" height="47.78"/>
<text transform="matrix(1 0 0 1 19.3102 36.8055)" class="st2 st3 st4">Facts</text>
</svg>
