<?xml version="1.0" encoding="utf-8"?>
<!-- Generator: Adobe Illustrator 24.1.2, SVG Export Plug-In . SVG Version: 6.00 Build 0)  -->
<svg version="1.1" id="Layer_1" xmlns="http://www.w3.org/2000/svg" xmlns:xlink="http://www.w3.org/1999/xlink" x="0px" y="0px"
	 viewBox="0 0 100 60" style="enable-background:new 0 0 100 60;" xml:space="preserve">
<style type="text/css">
	.st0{fill:#F2D349;}
	.st1{fill:none;}
	.st2{fill:#5C6E58;}
	.st3{font-family:'ArialMT';}
	.st4{font-size:30px;}
</style>
<path class="st0" d="M96.7,1c0.6,0,1.1,0.1,1.7,0.2c0,0,0.1,0,0.1,0c0.1,0,0.2,0,0.3,0.1c0.4,0.1,0.8,0.2,1.2,0.4V0H58.3
	c5.3,2.3,4.5,11.9-2.5,11.9c-7,0-7.8-9.6-2.5-11.9H32.4c0,2-1.2,4-3.7,4s-3.8-2-3.7-4H7.6C7.3,2.1,5.7,4,2.9,4C1.7,4,0.8,3.7,0,3.1
	V23c1-0.4,2.1-0.6,3.3-0.6c11.2,0,11.2,17.4,0,17.4c-1.2,0-2.3-0.2-3.3-0.6V60h3.6c-5.3-2.8-4.3-12.7,3.1-12.7
	c7.4,0,8.5,9.9,3.1,12.7h49.5c-1.2-4.5,1.3-10.2,7.3-10.2c6.1,0,8.5,5.6,7.3,10.2h18.4c-1.7-4.5,0.6-10.8,6.9-10.8
	c0.2,0,0.4,0,0.6,0v-31c-1,0.4-2.1,0.6-3.3,0.6C85.2,18.8,85.2,1,96.7,1z M13.8,23.4c-9.5,0-9.5-14.8,0-14.8
	C23.3,8.7,23.3,23.4,13.8,23.4z M21.5,11.9c-0.6,0-0.6-1,0-1S22.1,11.9,21.5,11.9z M28.3,29c7,0,7,10.9,0,10.9
	C21.3,39.9,21.3,29,28.3,29z M33.6,56.4c-7.6,0-7.6-11.8,0-11.8C41.2,44.6,41.2,56.4,33.6,56.4z M41.5,30.7c-1.5,0-1.5-2.3,0-2.3
	C43,28.4,43,30.7,41.5,30.7z M39.6,13.8c-0.5,1.5-1.8,2.8-3.8,2.8c-5.4,0-5.4-8.4,0-8.4c1.5,0,2.6,0.7,3.3,1.6
	c0.5-1.7,1.9-3.2,4.2-3.2c5.8,0,5.8,9.1,0,9.1C41.5,15.6,40.3,14.8,39.6,13.8z M48.2,47.9c-2.9,0-2.8-4.4,0-4.4
	C51,43.5,51,47.9,48.2,47.9z M54.5,52.5c-5.4,0-5.3-8.3,0-8.3C59.8,44.1,59.8,52.5,54.5,52.5z M63.1,33.8c-0.3,0.4-0.7,0.6-1.3,0.6
	c-1.2,0-1.8-1.1-1.6-2c-0.4-0.6-0.6-1.2-0.7-1.9c-0.9,0.5-1.9,0.7-3.1,0.7c-8.8,0-8.8-13.6,0-13.6c5.4,0,7.5,5.1,6.2,9.1
	c0.1,0,0.2,0,0.3,0C67.6,26.6,67.6,33.7,63.1,33.8z M67.1,7.5c6.4,0,6.4,10,0,10C60.6,17.5,60.6,7.5,67.1,7.5z M81.8,53.2
	c-3,0-4.9-1.7-5.8-3.8c-0.3,0-0.7,0.1-1.1,0.1c-9.2,0-9.2-14.2,0-14.2c3.7,0,5.9,2.3,6.6,5.1c0.1,0,0.1,0,0.2,0
	C90.1,40.3,90.1,53.2,81.8,53.2z M86.3,33.6c-4.8,0-6.6-4.7-5.3-8.1c-0.2,0-0.4,0-0.7,0c-7.3,0-7.3-11.3,0-11.3
	c4.5,0,6.2,4.3,5.1,7.6c0.3,0,0.6-0.1,0.8-0.1C93.9,21.8,93.9,33.6,86.3,33.6z"/>
<rect x="17.9" y="17.5" class="st1" width="82.9" height="47.8"/>
<text transform="matrix(1 0 0 1 17.9167 38.7657)" class="st2 st3 st4">Quiz</text>
</svg>
